<?xml version="1.0" encoding="UTF-8"?>
<svg id="Layer_1" data-name="Layer 1" xmlns="http://www.w3.org/2000/svg" viewBox="0 0 583.26 88.62">
  <defs>
    <style>
      .cls-1 {
        fill: #fff;
        stroke-width: 0px;
      }
    </style>
  </defs>
  <path class="cls-1" d="M215.14,26.39c-4.86,0-9.81.13-14.74-.11-.9-.04-2.11-1.41-2.53-2.44-1.66-4.05-4.69-6-8.89-6.05-7.32-.09-14.66-.22-21.97.08-5.41.22-8.75,4.05-8.61,9.05.14,4.96,3.7,8.35,9.21,8.45,7.32.13,14.66-.14,21.98.1,13.12.44,23.43,9.2,25.84,21.62,2.21,11.37-3.98,23.43-14.68,28.55-1.2.57-2.47,1.37-3.72,1.38-12.41.12-24.98,1.29-37.2-.24-11.2-1.4-19.09-13.18-18.65-24.68,5.03,0,10.13-.13,15.2.12.86.04,1.95,1.56,2.42,2.62,1.75,4.01,4.74,5.81,9.02,5.78,6.99-.04,13.99.09,20.98-.05,5.89-.13,9.39-3.57,9.33-8.77-.06-5.2-3.61-8.56-9.48-8.67-6.99-.12-13.99.13-20.98-.09-14.56-.45-25.82-10.6-26.82-23.93-1.04-13.87,7.77-26.51,21.33-28.15,10.49-1.27,21.36-1.27,31.87-.11,12.72,1.41,22.31,13.7,21.09,25.53Z"/>
  <path class="cls-1" d="M302.35.26c-8.41,13.59-15.92,26.14-23.9,38.39-2.66,4.08-2.73,6.97,0,11.09,7.53,11.39,14.5,23.14,21.67,34.76.58.94.95,1.99,1.76,3.71-6.58,0-12.52.21-18.42-.16-1.34-.08-2.88-1.95-3.79-3.35-4.86-7.53-9.55-15.17-14.82-23.62-4.23,6.78-8.5,12.7-11.75,19.13-3.16,6.25-7.19,9.35-14.42,8.15-3.54-.59-7.26-.1-11.19-.1V.34c5.17,0,10.11-.23,14.98.21.89.08,2.16,2.9,2.17,4.46.16,15.66.1,31.32.1,46.98,0,1.79,0,3.58,0,5.36.35.15.7.31,1.05.46.96-1.38,1.99-2.72,2.87-4.14,9.91-16,19.97-31.91,29.58-48.09,2.49-4.2,5.27-5.8,9.97-5.41,4.26.36,8.57.08,14.13.08Z"/>
  <path class="cls-1" d="M.09.26c4.36,0,7.84,0,11.32,0,19.66,0,39.32.08,58.98-.07,3.82-.03,5.19.99,5.18,5.03-.04,12.49.12,12.49-12.28,12.49-5.3,0-10.6,0-16.67,0,0,2.51,0,4.43,0,6.36,0,19.66-.11,39.32.1,58.98.04,4.16-1.17,5.64-5.34,5.29-3.92-.33-7.9-.07-12.46-.07,0-2.41,0-4.19,0-5.97,0-19.49-.14-38.99.1-58.48.06-4.66-.94-6.59-6-6.19-5.96.47-11.99-.01-17.98.14-3.5.09-5.27-.92-5.01-4.8C.29,9.01.09,5.03.09.26Z"/>
  <path class="cls-1" d="M437.91,51.08V17.39c9.48.43,18.8.11,27.86,1.5,7.29,1.12,12.09,9.12,11.72,16.56-.37,7.56-6.25,14.86-13.82,15.47-8.38.69-16.85.16-25.77.16Z"/>
  <path class="cls-1" d="M474.12,87.94c-2.27.15-3.55.3-4.83.3-10.29.02-20.58.01-31.55.01,0-5.92-.13-11.36.14-16.77.04-.82,1.92-2.18,2.98-2.22,6.32-.21,12.66-.24,18.98,0,1.39.05,3.23,1.07,4,2.23,3.42,5.09,6.54,10.39,10.28,16.45Z"/>
  <path class="cls-1" d="M583.2,42.78c-1.36-23.23-18.62-41.57-41.29-42.23-24.29-.72-48.61-.16-73.98-.16,21.59,9.46,26.87,17.7,27.28,40.47.1,5.42.77,11.02,2.29,16.21,6.41,21.85,27.84,34.42,50.74,30.17,20.25-3.76,36.17-23.99,34.97-44.45ZM538.94,70.5c-14.57-.11-26.32-12.09-26.12-26.62.21-14.55,12.25-26.23,26.78-25.97,14.44.26,26.1,11.93,26.13,26.15.03,14.84-11.83,26.55-26.79,26.44Z"/>
  <path class="cls-1" d="M391.5.19c-11.48-.02-22.96.17-34.44-.06-3.96-.08-5.07,1.12-5.05,5.1.17,25.78.07,51.57.08,77.36,0,1.76.19,3.53.29,5.31h17.32v-18.86c8.21,0,15.53.16,22.84-.03,19.84-.53,35.34-15.91,34.88-34.42-.5-19.84-15.65-34.36-35.92-34.4ZM395.45,51.09c-8.25.62-16.59.14-25.69.14,0-10.61-.09-20.58.13-30.54.02-1.01,1.88-2.81,2.92-2.83,7.49-.14,15.01-.29,22.46.31,8.38.68,14.37,7.86,14.5,16.36.13,8.22-6.05,15.95-14.32,16.57Z"/>
  <path class="cls-1" d="M136.19,82.52c-7.39-22.95-14.81-45.9-22.21-68.85C109.56-.04,109.56.08,95.29.17c-3.29.02-4.56,1.23-5.51,4.22-8.4,26.47-16.96,52.9-25.45,79.34-.43,1.32-.62,2.72-1.02,4.52,3.24,0,5.89,0,8.54,0,9.09,0,9.22.05,12.18-8.57.93-2.71,2.27-3.6,5.03-3.52,5.99.17,11.99.05,17.98.05,8.51,0,8.38.04,11.31,7.93.6,1.62,2.49,3.74,3.96,3.89,4.92.49,9.93.19,15.5.19-.64-2.27-1.07-4.01-1.62-5.71ZM91.02,58.24c3.06-9.52,5.92-18.46,8.79-27.4.39-.04.78-.08,1.17-.12,2.92,9.01,5.84,18.02,8.93,27.52h-18.89Z"/>
</svg>